P3
32 1
255
0 0 0 26 28 44 93 39 93 177 62 83 239 125 87 255 205 117 167 240 112 56 183 100 37 113 121 41 54 111 59 93 201 65 166 246 115 239 247 244 244 244 148 176 194 86 108 134 51 60 87 46 34 47 63 63 116 69 40 60 102 57 49 143 86 59 223 113 38 217 160 102 238 195 154 251 242 54 153 229 80 106 190 48 55 148 110 75 105 47 82 75 36 50 60 57
